inDegrees=no
num_controls=7
num_derivatives=13
num_iterations=121
num_multipliers=7
num_parameters=0
num_slacks=7
num_states=26
objective=0.545913
objective_accelerations=0.041271
objective_balance=0.003710
objective_effort=0.040065
objective_height=0.451399
objective_ligament=0.009468
solver_duration=1244.348358
status=Solve_Succeeded
success=true
DataType=double
version=3
OpenSimVersion=4.5
endheader
time	/jointset/ground_pelvis/pelvis_tilt/value	/jointset/ground_pelvis/pelvis_tx/value	/jointset/ground_pelvis/pelvis_ty/value	/jointset/hip_r/hip_flexion_r/value	/jointset/hip_r/hip_adduction_r/value	/jointset/hip_r/hip_rotation_r/value	/jointset/back/lumbar_extension/value	/jointset/patellofemoral_r/patellar_flexion_r/value	/jointset/knee_r/knee_flexion_r/value	/jointset/knee_r/knee_adduction_r/value	/jointset/knee_r/knee_rotation_r/value	/jointset/ankle_r/ankle_angle_r/value	/jointset/subtalar_r/subtalar_angle_r/value	/jointset/ground_pelvis/pelvis_tilt/speed	/jointset/ground_pelvis/pelvis_tx/speed	/jointset/ground_pelvis/pelvis_ty/speed	/jointset/hip_r/hip_flexion_r/speed	/jointset/hip_r/hip_adduction_r/speed	/jointset/hip_r/hip_rotation_r/speed	/jointset/back/lumbar_extension/speed	/jointset/patellofemoral_r/patellar_flexion_r/speed	/jointset/knee_r/knee_flexion_r/speed	/jointset/knee_r/knee_adduction_r/speed	/jointset/knee_r/knee_rotation_r/speed	/jointset/ankle_r/ankle_angle_r/speed	/jointset/subtalar_r/subtalar_angle_r/speed	/forceset/tau_hip_flexion_r	/forceset/tau_hip_adduction_r	/forceset/tau_hip_rotation_r	/forceset/tau_knee_flexion_r	/forceset/tau_ankle_angle_r	/forceset/tau_subtalar_angle_r	/forceset/tau_lumbar_extension	lambda_cid13_p0	lambda_cid14_p0	lambda_cid14_p1	lambda_cid14_p2	lambda_cid14_p3	lambda_cid14_p4	lambda_cid14_p5	/jointset/ground_pelvis/pelvis_tilt/accel	/jointset/ground_pelvis/pelvis_tx/accel	/jointset/ground_pelvis/pelvis_ty/accel	/jointset/hip_r/hip_flexion_r/accel	/jointset/hip_r/hip_adduction_r/accel	/jointset/hip_r/hip_rotation_r/accel	/jointset/back/lumbar_extension/accel	/jointset/patellofemoral_r/patellar_flexion_r/accel	/jointset/knee_r/knee_flexion_r/accel	/jointset/knee_r/knee_adduction_r/accel	/jointset/knee_r/knee_rotation_r/accel	/jointset/ankle_r/ankle_angle_r/accel	/jointset/subtalar_r/subtalar_angle_r/accel	gamma_cid13_p0	gamma_cid14_p0	gamma_cid14_p1	gamma_cid14_p2	gamma_cid14_p3	gamma_cid14_p4	gamma_cid14_p5
0.5	-0.207828201339432	0.001576378806074201	0.8426436609265792	0.8835674690563652	-0.2284065932793056	-0.1317083135172479	-0.3378116214121291	0.6952449404938114	0.695244940493812	0.03752251765346237	0.1744992883377242	0.1878935743228277	0.03761456271084807	-0.5587287906779517	-0.1986580518556764	-0.3970953536065366	1.902827845185662	-0.001166341363098205	0.2669716949159638	-0.5927208601968625	1.669438382908565	1.66943838290856	-0.2783368395217953	-0.0002457323086301299	0.4069715342768352	0.1034838135619245	-0.1472966513088516	-0.02184385156387125	0.009255275617905418	-0.3142899187120812	0.1101568173734962	-0.009265168637630284	0.1842380121561747	-31.60129949164511	-6.899547208354809	-1.067055240019406	-4.12719526230182	-1.448149976954492	-668.7424451863136	59.75319195271204	0.2750680001146484	0.508324868679334	-0.3347868261710447	-1.279059844785825	-0.0195991629036606	-0.531958218559245	1.715063597583393	-1.239479660467778	-1.239479660467784	0.4277478458298375	0.01186752487276724	-0.3645986594370124	-0.06874929798108503	-1.171700941765442e-07	-1.751316987727939e-07	4.174167129273839e-07	-1.177272129668804e-06	6.850541041143018e-08	-2.568699713334665e-07	4.347202361327467e-07
0.51	-0.2134006110918363	-0.0003845896419976584	0.8386568904829057	0.9025286169605437	-0.2284201665820522	-0.1290638984087682	-0.343652762863203	0.7118747963327899	0.7118747963327909	0.03476334987799451	0.1744972738106911	0.1919440858448842	0.03864451865324577	-0.5556728051602008	-0.1935193777051288	-0.4001688487574981	1.889143541438193	-0.001559725945021913	0.2619544747503057	-0.5754409611993445	1.65629828868037	1.656298288680358	-0.2734255424210447	-0.0001832917090787504	0.4030637110845886	0.102472084546163	-0.1548199883327313	-0.02025872052333122	0.009902277861008576	-0.3165696049927681	0.1072699168559795	-0.008808191335236436	0.1906322039418324	-30.64291862875273	-8.033813090348298	-1.169774572603131	-3.993644381367787	-0.9510225274719731	-672.8766932978243	59.51404979371149	0.3329016023664662	0.5190914938695117	-0.2801984746800775	-1.451865763220963	-0.05105112459834315	-0.4803164842632351	1.744423373623039	-1.386426319184669	-1.386426319185634	0.5335056600182839	-0.0007023606867192669	-0.4139399597760011	-0.1227492371143051	-9.418028977620559e-08	-1.003766945749842e-07	6.062985739088526e-07	-6.49528817730371e-07	-2.378859897628835e-09	-1.817530360171266e-07	4.069738293384499e-07
0.52	-0.218940053434111	-0.002293680787438644	0.8346420715646982	0.9213451718025487	-0.2284380423343707	-0.1264683980156837	-0.3493191112597445	0.7283662208264492	0.7283662208264498	0.03205543207709801	0.1744950567520163	0.1959535059728868	0.03966328439873775	-0.5521353086520036	-0.1882825913295016	-0.4027050485133282	1.87390923275098	-0.002026831277409312	0.2571887518368799	-0.5577622492903702	1.641752113844605	1.641752113844586	-0.2680868446074683	-0.000286238636849054	0.3987532554660413	0.1012457741807765	-0.1623433253566369	-0.01867358948279054	0.01054928010410335	-0.3188492912734548	0.1043830163384631	-0.008351214032841277	0.1970263957274903	-29.67824123756222	-9.171383314587926	-1.270011027458813	-3.863986918094712	-0.4690961737877637	-677.0713436547227	59.34053105103175	0.3713701982039127	0.5279473136952459	-0.2273277471447688	-1.589060832734857	-0.03434331299628842	-0.4816587681129875	1.794826179874675	-1.520695781981793	-1.520695781981795	0.51322798839513	-0.02120998059157454	-0.445125144697149	-0.1116655679061037	-5.801723368125615e-08	4.044320727480623e-08	1.030083437500486e-06	3.354167352498775e-07	-1.465689691347688e-07	-3.810084329605249e-08	4.004575880221405e-07
0.53	-0.2244419703829092	-0.004149944961805071	0.8306045840214114	0.9400021399418913	-0.228460149385858	-0.1239227078287322	-0.3548066663291276	0.7447054125413828	0.7447054125413853	0.02939943734555817	0.1744929226227252	0.1999181776033951	0.04066985908985986	-0.5481746695152827	-0.1829548463585944	-0.4046989478456459	1.85723308337087	-0.002403468852051997	0.2519901689571369	-0.5397010744571401	1.625859104239053	1.625859104239047	-0.2630523605359846	-0.0001697671261481601	0.3941236449008311	0.1000394407083071	-0.1694409540482104	-0.01738087859436465	0.01115354764400948	-0.3217375534167368	0.1023707360795799	-0.007997600454378539	0.2030790948770259	-28.70795987200061	-10.03491905217442	-1.371123116463678	-3.729659677681359	-0.1816486412632926	-681.312606442362	59.22295490052165	0.4194302419908798	0.5374532055295936	-0.1713867109535613	-1.744578006213829	-0.04041361691184821	-0.5328295423223256	1.818916654415923	-1.657664480803558	-1.657664480801614	0.5077478551171426	0.02385595284162015	-0.4805292947948265	-0.1292781471230155	-3.185759066534173e-08	1.360829021568337e-07	1.302440040751611e-06	1.000154074493619e-06	-2.433263012320615e-07	5.867613422228419e-08	4.066857059980083e-07
